<svg width="56" height="56" viewBox="0 0 56 56" fill="none" xmlns="http://www.w3.org/2000/svg">
<rect width="56" height="56" rx="8" fill="#F5F5F5"/>
<g clip-path="url(#clip0_380_1000)">
<path d="M20.8267 26.3867C22.7467 30.16 25.84 33.24 29.6133 35.1733L32.5467 32.24C32.9067 31.88 33.44 31.76 33.9067 31.92C35.4 32.4133 37.0133 32.68 38.6667 32.68C39.4 32.68 40 33.28 40 34.0133V38.6667C40 39.4 39.4 40 38.6667 40C26.1467 40 16 29.8533 16 17.3333C16 16.6 16.6 16 17.3333 16H22C22.7333 16 23.3333 16.6 23.3333 17.3333C23.3333 19 23.6 20.6 24.0933 22.0933C24.24 22.56 24.1333 23.08 23.76 23.4533L20.8267 26.3867Z" fill="#FF3B30"/>
</g>
<defs>
<clipPath id="clip0_380_1000">
<rect width="32" height="32" fill="white" transform="translate(12 12)"/>
</clipPath>
</defs>
</svg>
